<?xml version="1.0" encoding="UTF-8"?>
<svg xmlns="http://www.w3.org/2000/svg" xmlns:xlink="http://www.w3.org/1999/xlink" width="48pt" height="48pt" viewBox="0 0 48 48" version="1.1">
<g id="surface326743">
<rect x="0" y="0" width="48" height="48" style="fill:rgb(10.196078%,73.72549%,61.176471%);fill-opacity:1;stroke:none;"/>
<path style=" stroke:none;fill-rule:nonzero;fill:rgb(10.196078%,73.72549%,61.176471%);fill-opacity:1;" d="M 13.351562 13.777344 C 15.316406 12.714844 17.796875 11.800781 20.027344 11.660156 C 20.9375 11.601562 22.386719 11.449219 23.300781 11.472656 C 26.578125 11.554688 29.515625 12.132812 32.394531 13.699219 C 32.394531 13.699219 28.675781 14.792969 26.820312 16.996094 C 24.96875 19.203125 23.574219 23.011719 23.785156 24.386719 C 23.183594 21.523438 22.246094 18.734375 19.625 16.992188 C 17.003906 15.253906 15.203125 14.167969 13.351562 13.777344 Z M 13.351562 13.777344 "/>
<path style=" stroke:none;fill-rule:nonzero;fill:rgb(83.921569%,89.803922%,89.803922%);fill-opacity:1;" d="M 43.648438 16.542969 C 42.199219 14.949219 40.378906 14.40625 38.285156 13.753906 C 33.296875 12.191406 27.417969 14.890625 25.113281 19.429688 C 22.8125 23.96875 23.992188 29.789062 27.558594 33.496094 C 29.78125 35.808594 32.90625 37.378906 36.175781 37.480469 C 39.445312 37.582031 42.796875 36.109375 44.601562 33.480469 C 45.390625 32.332031 45.871094 31.015625 46.3125 29.707031 C 47.292969 26.804688 48.113281 23.585938 46.902344 20.765625 C 46.132812 18.964844 44.980469 18.007812 43.648438 16.542969 Z M 43.648438 16.542969 "/>
<path style=" stroke:none;fill-rule:nonzero;fill:rgb(83.921569%,89.803922%,89.803922%);fill-opacity:1;" d="M 23.34375 21.84375 C 22.359375 18.730469 19.117188 16.191406 16.167969 14.808594 C 14.738281 14.140625 13.1875 13.679688 11.613281 13.699219 C 9.757812 13.722656 7.921875 14.359375 6.386719 15.40625 C 3.496094 17.378906 1.300781 20.5 0.664062 23.785156 C 0 27.207031 1.304688 30.972656 3.960938 33.222656 C 5.585938 34.597656 7.628906 35.367188 9.6875 35.890625 C 11.964844 36.46875 14.394531 36.769531 16.632812 36.0625 C 19.425781 35.175781 21.578125 32.777344 22.667969 30.054688 C 23.761719 27.328125 24.226562 24.644531 23.34375 21.84375 Z M 23.34375 21.84375 "/>
<path style=" stroke:none;fill-rule:nonzero;fill:rgb(21.568627%,21.960784%,21.568627%);fill-opacity:1;" d="M 46.890625 20.765625 C 46.105469 18.964844 46.023438 19.25 45.488281 18.503906 C 46.109375 16.644531 46.355469 15.21875 47.425781 13.578125 C 45.488281 13.890625 43.152344 14.070312 41.191406 14.019531 C 40.660156 14.003906 40.121094 13.976562 39.601562 13.855469 C 38.929688 13.695312 38.304688 13.386719 37.675781 13.089844 C 33.148438 10.953125 28.210938 9.578125 23.207031 9.515625 C 18.199219 9.453125 12.796875 10.921875 8.664062 13.75 C 7.0625 13.558594 4.707031 13.8125 3.109375 13.621094 C 2.421875 13.542969 1.714844 13.460938 1.042969 13.621094 C 0.859375 13.664062 0.65625 13.746094 0.601562 13.925781 C 0.554688 14.085938 0.640625 14.246094 0.722656 14.390625 C 1.832031 16.335938 2.679688 17.195312 2.390625 19.421875 C 2.390625 19.421875 1.050781 21.769531 0.664062 23.78125 C 0.0078125 27.203125 1.292969 30.972656 3.914062 33.222656 C 5.515625 34.59375 7.53125 35.363281 9.5625 35.886719 C 11.804688 36.46875 14.203125 36.765625 16.410156 36.058594 C 18.296875 35.453125 19.875 34.128906 21.035156 32.484375 C 21.847656 33.714844 22.859375 35.128906 23.578125 36.273438 C 23.636719 36.367188 23.71875 36.476562 23.824219 36.472656 C 23.902344 36.46875 23.964844 36.40625 24.019531 36.347656 C 24.890625 35.40625 25.917969 34.128906 26.605469 32.863281 C 26.792969 33.078125 26.980469 33.292969 27.183594 33.496094 C 29.445312 35.808594 32.632812 37.375 35.964844 37.476562 C 39.292969 37.578125 42.710938 36.105469 44.546875 33.480469 C 45.351562 32.332031 45.839844 31.015625 46.289062 29.707031 C 47.289062 26.804688 48.125 23.585938 46.890625 20.765625 Z M 16.125 12.535156 C 17.261719 12.164062 20.628906 11.277344 23.808594 11.488281 C 26.9375 11.699219 29.34375 12.261719 32.097656 13.710938 C 28.953125 14.546875 26.132812 16.636719 24.691406 19.429688 C 23.828125 21.09375 23.449219 22.933594 23.488281 24.773438 C 23.484375 24.773438 23.480469 24.769531 23.476562 24.765625 C 23.46875 23.800781 23.332031 22.828125 23.023438 21.84375 C 22.054688 18.730469 18.855469 16.191406 15.949219 14.808594 C 14.9375 14.328125 13.859375 13.964844 12.757812 13.800781 C 14.164062 13.730469 15.125 12.859375 16.125 12.535156 Z M 15.917969 34.054688 C 13.898438 34.789062 11.613281 34.730469 9.570312 34.058594 C 7.527344 33.382812 5.71875 32.125 4.265625 30.585938 C 3.847656 30.144531 3.457031 29.675781 3.15625 29.15625 C 2.339844 27.742188 2.246094 26.027344 2.535156 24.433594 C 2.894531 22.464844 4.007812 20.621094 5.519531 19.257812 C 6.589844 18.289062 7.550781 17.070312 8.96875 16.703125 C 9.574219 16.542969 10.207031 16.488281 10.839844 16.476562 C 12.835938 16.4375 14.855469 16.832031 16.625 17.722656 C 18.398438 18.613281 19.910156 20.015625 20.796875 21.742188 C 21.054688 22.242188 21.261719 22.769531 21.371094 23.316406 C 21.523438 24.082031 21.492188 24.867188 21.4375 25.644531 C 21.355469 26.839844 21.222656 28.046875 20.820312 29.179688 C 20.035156 31.390625 18.1875 33.230469 15.917969 34.054688 Z M 43.5 30.640625 C 43.078125 31.589844 42.582031 32.53125 41.804688 33.21875 C 41.132812 33.8125 40.289062 34.179688 39.4375 34.464844 C 38.648438 34.730469 37.828125 34.9375 36.996094 34.996094 C 35.5625 35.097656 34.117188 34.761719 32.808594 34.167969 C 29.355469 32.609375 26.816406 29.179688 26.335938 25.421875 C 26.242188 24.671875 26.222656 23.90625 26.367188 23.164062 C 26.492188 22.539062 26.730469 21.945312 26.96875 21.355469 C 27.683594 19.5625 28.804688 17.496094 30.578125 16.742188 C 32.027344 16.128906 33.953125 15.757812 35.523438 15.855469 C 36.660156 15.925781 37.75 16.308594 38.820312 16.6875 C 39.851562 17.050781 40.898438 17.421875 41.796875 18.039062 C 43.695312 19.34375 44.753906 21.648438 44.914062 23.945312 C 45.078125 26.246094 44.4375 28.535156 43.5 30.640625 Z M 43.5 30.640625 "/>
<path style=" stroke:none;fill-rule:nonzero;fill:rgb(96.078431%,51.764706%,12.54902%);fill-opacity:1;" d="M 12.972656 23.605469 C 12.289062 23.480469 12.152344 23.621094 11.460938 23.671875 C 11.203125 23.691406 10.9375 23.746094 10.738281 23.921875 C 10.546875 24.09375 10.460938 24.6875 10.40625 24.949219 C 10.253906 25.699219 10.445312 26.191406 10.933594 26.757812 C 11.417969 27.324219 12.167969 27.617188 12.882812 27.519531 C 13.890625 27.378906 14.488281 26.410156 14.445312 25.324219 C 14.402344 24.238281 13.976562 23.789062 12.972656 23.605469 Z M 12.972656 23.605469 "/>
<path style=" stroke:none;fill-rule:nonzero;fill:rgb(0.392157%,0.392157%,0.392157%);fill-opacity:1;" d="M 12.605469 28.035156 C 11.835938 28.035156 11.070312 27.6875 10.554688 27.082031 C 9.925781 26.351562 9.738281 25.703125 9.914062 24.851562 L 9.9375 24.738281 C 10.03125 24.230469 10.132812 23.789062 10.40625 23.546875 C 10.65625 23.324219 10.988281 23.203125 11.425781 23.175781 C 11.636719 23.160156 11.796875 23.132812 11.933594 23.113281 C 12.25 23.0625 12.527344 23.015625 13.0625 23.117188 C 14.3125 23.34375 14.894531 24.019531 14.945312 25.304688 C 15.003906 26.707031 14.160156 27.847656 12.949219 28.011719 C 12.835938 28.027344 12.722656 28.035156 12.605469 28.035156 Z M 12.488281 24.058594 C 12.355469 24.058594 12.242188 24.074219 12.089844 24.097656 C 11.929688 24.125 11.746094 24.152344 11.492188 24.171875 C 11.285156 24.183594 11.148438 24.226562 11.070312 24.296875 C 11.023438 24.375 10.945312 24.785156 10.921875 24.921875 L 10.898438 25.046875 C 10.785156 25.597656 10.886719 25.933594 11.3125 26.433594 C 11.691406 26.871094 12.261719 27.101562 12.8125 27.023438 C 13.632812 26.910156 13.976562 26.074219 13.945312 25.34375 C 13.914062 24.511719 13.683594 24.246094 12.882812 24.101562 C 12.71875 24.070312 12.597656 24.058594 12.488281 24.058594 Z M 12.488281 24.058594 "/>
<path style=" stroke:none;fill-rule:nonzero;fill:rgb(21.960784%,70.588235%,48.235294%);fill-opacity:1;" d="M 37.035156 24.367188 C 36.566406 24.015625 36.292969 23.863281 35.804688 23.667969 C 35.300781 23.464844 34.539062 23.527344 34.074219 23.804688 C 33.796875 23.972656 33.625 24.273438 33.53125 24.589844 C 33.164062 25.808594 34.015625 27.261719 35.242188 27.503906 C 36.050781 27.664062 36.96875 27.296875 37.347656 26.546875 C 37.722656 25.796875 37.699219 24.867188 37.035156 24.367188 Z M 37.035156 24.367188 "/>
<path style=" stroke:none;fill-rule:nonzero;fill:rgb(0.392157%,0.392157%,0.392157%);fill-opacity:1;" d="M 35.632812 28.042969 C 35.472656 28.042969 35.308594 28.027344 35.144531 27.996094 C 34.433594 27.851562 33.789062 27.378906 33.375 26.695312 C 32.953125 25.992188 32.835938 25.171875 33.050781 24.445312 C 33.195312 23.957031 33.464844 23.585938 33.816406 23.375 C 34.421875 23.011719 35.339844 22.9375 35.992188 23.203125 C 36.53125 23.421875 36.847656 23.601562 37.339844 23.96875 C 38.136719 24.566406 38.320312 25.71875 37.792969 26.769531 C 37.398438 27.554688 36.539062 28.042969 35.632812 28.042969 Z M 35.117188 24.046875 C 34.832031 24.046875 34.535156 24.113281 34.328125 24.234375 C 34.195312 24.316406 34.082031 24.492188 34.007812 24.730469 C 33.871094 25.1875 33.953125 25.714844 34.234375 26.179688 C 34.5 26.621094 34.902344 26.925781 35.339844 27.015625 C 35.972656 27.140625 36.636719 26.839844 36.898438 26.320312 C 37.152344 25.820312 37.207031 25.121094 36.738281 24.765625 C 36.316406 24.453125 36.078125 24.316406 35.621094 24.132812 C 35.476562 24.074219 35.300781 24.046875 35.117188 24.046875 Z M 35.117188 24.046875 "/>
<path style=" stroke:none;fill-rule:nonzero;fill:rgb(0.392157%,0.392157%,0.392157%);fill-opacity:1;" d="M 12.816406 35.089844 C 11.6875 35.089844 10.535156 34.902344 9.410156 34.53125 C 7.410156 33.871094 5.503906 32.625 3.902344 30.929688 C 3.367188 30.363281 3.003906 29.890625 2.722656 29.40625 C 1.71875 27.664062 1.800781 25.691406 2.046875 24.339844 C 2.410156 22.320312 3.527344 20.382812 5.183594 18.882812 C 5.410156 18.679688 5.632812 18.464844 5.855469 18.246094 C 6.714844 17.40625 7.605469 16.539062 8.839844 16.21875 C 9.414062 16.070312 10.042969 15.992188 10.828125 15.976562 C 12.960938 15.925781 15.074219 16.382812 16.847656 17.277344 C 18.773438 18.242188 20.332031 19.75 21.242188 21.511719 C 21.546875 22.105469 21.75 22.664062 21.859375 23.21875 C 22.027344 24.050781 21.992188 24.890625 21.9375 25.679688 C 21.855469 26.871094 21.71875 28.144531 21.289062 29.347656 C 20.449219 31.710938 18.507812 33.644531 16.085938 34.527344 C 15.058594 34.898438 13.949219 35.089844 12.816406 35.089844 Z M 11.109375 16.972656 C 11.019531 16.972656 10.933594 16.976562 10.847656 16.976562 C 10.144531 16.992188 9.585938 17.058594 9.09375 17.1875 C 8.113281 17.441406 7.355469 18.179688 6.550781 18.964844 C 6.320312 19.1875 6.089844 19.414062 5.855469 19.625 C 4.359375 20.976562 3.355469 22.714844 3.03125 24.519531 C 2.8125 25.707031 2.734375 27.429688 3.589844 28.90625 C 3.828125 29.324219 4.152344 29.734375 4.628906 30.242188 C 6.117188 31.820312 7.878906 32.976562 9.726562 33.585938 C 11.765625 34.257812 13.90625 34.257812 15.746094 33.589844 C 17.886719 32.808594 19.609375 31.097656 20.351562 29.011719 C 20.738281 27.921875 20.863281 26.734375 20.941406 25.609375 C 20.988281 24.890625 21.027344 24.132812 20.882812 23.417969 C 20.789062 22.953125 20.613281 22.480469 20.355469 21.972656 C 19.539062 20.394531 18.136719 19.042969 16.402344 18.171875 C 14.84375 17.386719 13.019531 16.972656 11.109375 16.972656 Z M 5.519531 19.253906 L 5.53125 19.253906 Z M 5.519531 19.253906 "/>
<path style=" stroke:none;fill-rule:nonzero;fill:rgb(0.392157%,0.392157%,0.392157%);fill-opacity:1;" d="M 36.492188 35.511719 C 35.230469 35.511719 33.898438 35.210938 32.601562 34.625 C 28.996094 32.996094 26.34375 29.40625 25.839844 25.484375 C 25.722656 24.574219 25.734375 23.78125 25.878906 23.066406 C 26.011719 22.394531 26.261719 21.773438 26.503906 21.167969 C 27.554688 18.542969 28.824219 16.941406 30.382812 16.28125 C 31.972656 15.609375 33.953125 15.253906 35.554688 15.355469 C 36.765625 15.429688 37.894531 15.828125 38.988281 16.214844 C 40.035156 16.585938 41.121094 16.96875 42.082031 17.628906 C 43.980469 18.933594 45.226562 21.28125 45.414062 23.910156 C 45.5625 26.035156 45.085938 28.304688 43.957031 30.84375 C 43.546875 31.769531 43.007812 32.820312 42.136719 33.59375 C 41.335938 34.296875 40.359375 34.683594 39.597656 34.9375 C 38.65625 35.257812 37.816406 35.4375 37.035156 35.492188 C 36.855469 35.507812 36.675781 35.511719 36.492188 35.511719 Z M 30.773438 17.203125 C 29.488281 17.746094 28.363281 19.207031 27.429688 21.539062 C 27.195312 22.128906 26.972656 22.683594 26.859375 23.261719 C 26.738281 23.867188 26.730469 24.554688 26.832031 25.355469 C 27.289062 28.945312 29.71875 32.222656 33.015625 33.710938 C 34.34375 34.3125 35.703125 34.589844 36.964844 34.496094 C 37.660156 34.445312 38.417969 34.28125 39.277344 33.992188 C 39.953125 33.765625 40.808594 33.429688 41.472656 32.84375 C 42.199219 32.199219 42.675781 31.265625 43.042969 30.4375 C 44.105469 28.050781 44.554688 25.941406 44.414062 23.984375 C 44.25 21.652344 43.164062 19.585938 41.515625 18.453125 C 40.664062 17.867188 39.640625 17.507812 38.652344 17.160156 C 37.628906 16.796875 36.5625 16.421875 35.492188 16.355469 C 34.058594 16.265625 32.207031 16.597656 30.773438 17.203125 Z M 30.773438 17.203125 "/>
<path style=" stroke:none;fill-rule:nonzero;fill:rgb(0.392157%,0.392157%,0.392157%);fill-opacity:1;" d="M 47.351562 20.566406 C 46.980469 19.71875 46.53125 19.058594 46.027344 18.449219 C 46.152344 18.074219 46.265625 17.703125 46.371094 17.355469 C 46.75 16.109375 47.078125 15.03125 47.84375 13.851562 C 47.953125 13.683594 47.953125 13.46875 47.84375 13.304688 C 47.738281 13.136719 47.542969 13.042969 47.347656 13.085938 C 45.363281 13.402344 43.070312 13.5625 41.207031 13.519531 C 40.742188 13.507812 40.210938 13.484375 39.714844 13.367188 C 39.152344 13.234375 38.621094 12.984375 38.058594 12.71875 L 37.890625 12.640625 C 32.925781 10.296875 27.984375 9.078125 23.210938 9.019531 C 18 8.96875 12.621094 10.488281 8.535156 13.234375 C 7.738281 13.15625 6.789062 13.171875 5.875 13.1875 C 4.921875 13.203125 3.933594 13.21875 3.167969 13.128906 C 2.480469 13.046875 1.699219 12.953125 0.925781 13.136719 C 0.386719 13.265625 0.191406 13.558594 0.125 13.78125 C 0.0078125 14.15625 0.195312 14.484375 0.285156 14.640625 C 0.476562 14.96875 0.65625 15.265625 0.824219 15.546875 C 1.625 16.875 2.109375 17.679688 1.890625 19.359375 C 1.890625 19.367188 1.894531 19.371094 1.894531 19.382812 C 1.058594 20.738281 0.453125 22.199219 0.171875 23.6875 C -0.515625 27.273438 0.855469 31.257812 3.589844 33.601562 C 5.023438 34.832031 6.882812 35.714844 9.433594 36.371094 C 10.992188 36.773438 12.363281 36.976562 13.613281 36.976562 C 14.675781 36.976562 15.648438 36.828125 16.5625 36.535156 C 18.25 35.996094 19.796875 34.875 21.015625 33.363281 C 21.332031 33.847656 21.640625 34.300781 21.945312 34.738281 C 22.339844 35.300781 22.730469 35.867188 23.152344 36.539062 C 23.332031 36.828125 23.554688 36.972656 23.816406 36.972656 C 23.828125 36.972656 23.839844 36.972656 23.851562 36.972656 C 24.136719 36.960938 24.3125 36.769531 24.386719 36.6875 C 25.34375 35.648438 26.011719 34.785156 26.5625 33.558594 C 26.648438 33.65625 26.730469 33.753906 26.824219 33.847656 C 29.296875 36.371094 32.621094 37.878906 35.945312 37.980469 C 36.058594 37.980469 36.175781 37.984375 36.289062 37.984375 C 39.773438 37.984375 43.148438 36.351562 44.957031 33.769531 C 45.804688 32.558594 46.3125 31.179688 46.761719 29.871094 C 47.828125 26.777344 48.636719 23.507812 47.351562 20.566406 Z M 46.476562 14.222656 C 45.988281 15.179688 45.707031 16.101562 45.414062 17.066406 C 45.367188 17.230469 45.304688 17.410156 45.253906 17.578125 C 45.085938 17.402344 44.921875 17.226562 44.742188 17.046875 C 44.484375 16.777344 44.21875 16.5 43.941406 16.203125 C 43.253906 15.460938 42.480469 14.9375 41.652344 14.523438 C 43.148438 14.535156 44.863281 14.429688 46.476562 14.222656 Z M 35.898438 12.847656 C 34.726562 12.765625 33.539062 12.859375 32.378906 13.125 C 29.722656 11.691406 27.089844 11.066406 23.3125 10.972656 C 22.625 10.953125 21.683594 11.03125 20.851562 11.097656 C 20.539062 11.121094 20.25 11.144531 19.996094 11.160156 C 17.933594 11.289062 15.425781 12.085938 13.113281 13.339844 C 13.101562 13.34375 13.097656 13.355469 13.085938 13.359375 C 12.53125 13.261719 11.980469 13.199219 11.449219 13.199219 C 11.085938 13.203125 10.714844 13.238281 10.34375 13.289062 C 14.066406 11.144531 18.632812 9.960938 23.199219 10.019531 C 27.328125 10.070312 31.59375 11.027344 35.898438 12.847656 Z M 23.390625 21.429688 C 22.257812 18.226562 18.949219 15.683594 16.160156 14.359375 C 15.617188 14.097656 15.085938 13.902344 14.558594 13.730469 C 16.457031 12.828125 18.417969 12.261719 20.058594 12.15625 C 20.316406 12.140625 20.613281 12.117188 20.929688 12.09375 C 21.738281 12.03125 22.664062 11.957031 23.285156 11.972656 C 26.445312 12.050781 28.757812 12.515625 30.96875 13.539062 C 28.128906 14.542969 25.621094 16.535156 24.242188 19.199219 C 23.875 19.914062 23.597656 20.660156 23.390625 21.429688 Z M 1.679688 15.027344 C 1.515625 14.757812 1.339844 14.464844 1.15625 14.140625 C 1.148438 14.132812 1.144531 14.121094 1.136719 14.113281 C 1.144531 14.109375 1.148438 14.109375 1.15625 14.109375 C 1.757812 13.96875 2.414062 14.046875 3.050781 14.121094 C 3.882812 14.21875 4.902344 14.203125 5.890625 14.1875 C 6.40625 14.179688 6.929688 14.171875 7.425781 14.179688 C 6.941406 14.414062 6.46875 14.683594 6.019531 14.996094 C 4.835938 15.816406 3.785156 16.820312 2.898438 17.933594 C 2.757812 16.835938 2.28125 16.027344 1.679688 15.027344 Z M 16.257812 35.585938 C 14.46875 36.15625 12.382812 36.101562 9.683594 35.40625 C 7.285156 34.785156 5.554688 33.972656 4.238281 32.84375 C 1.773438 30.726562 0.53125 27.121094 1.152344 23.878906 C 1.746094 20.777344 3.777344 17.765625 6.589844 15.816406 C 8.070312 14.792969 9.800781 14.21875 11.464844 14.199219 C 11.492188 14.199219 11.519531 14.199219 11.546875 14.199219 C 12.84375 14.199219 14.253906 14.554688 15.734375 15.261719 C 18.410156 16.53125 21.605469 18.96875 22.546875 21.992188 C 23.289062 24.367188 23.082031 26.871094 21.894531 29.871094 C 20.785156 32.671875 18.679688 34.808594 16.257812 35.585938 Z M 23.855469 35.78125 C 23.480469 35.195312 23.121094 34.679688 22.765625 34.164062 C 22.398438 33.640625 22.027344 33.105469 21.640625 32.496094 C 22.101562 31.800781 22.503906 31.046875 22.824219 30.238281 C 23.105469 29.523438 23.328125 28.839844 23.507812 28.171875 C 23.976562 29.78125 24.757812 31.324219 25.832031 32.699219 C 25.339844 33.953125 24.761719 34.78125 23.855469 35.78125 Z M 45.816406 29.546875 C 45.390625 30.785156 44.910156 32.089844 44.136719 33.195312 C 42.457031 35.59375 39.242188 37.097656 35.976562 36.976562 C 32.90625 36.882812 29.828125 35.488281 27.539062 33.148438 C 25.28125 30.84375 24.046875 27.816406 23.976562 24.832031 C 23.976562 24.773438 23.976562 24.714844 23.976562 24.652344 C 23.960938 22.917969 24.335938 21.203125 25.132812 19.660156 C 26.984375 16.078125 31.058594 13.804688 35.058594 13.804688 C 36.042969 13.804688 37.023438 13.941406 37.964844 14.230469 L 38.128906 14.28125 C 40.128906 14.898438 41.859375 15.429688 43.207031 16.882812 C 43.488281 17.1875 43.761719 17.46875 44.023438 17.738281 C 45.039062 18.789062 45.84375 19.617188 46.433594 20.96875 C 47.582031 23.59375 46.816406 26.644531 45.816406 29.546875 Z M 45.816406 29.546875 "/>
<path style=" stroke:none;fill-rule:nonzero;fill:rgb(21.568627%,21.960784%,21.568627%);fill-opacity:1;" d="M 38.679688 22.992188 C 39.6875 24.183594 39.941406 26.023438 39.265625 27.445312 C 38.589844 28.867188 37.007812 29.769531 35.5 29.546875 C 34.90625 29.460938 34.347656 29.214844 33.808594 28.941406 C 32.921875 28.488281 32.03125 27.890625 31.597656 26.960938 C 31.09375 25.875 31.328125 24.542969 31.894531 23.492188 C 32.476562 22.410156 33.417969 21.769531 34.578125 21.523438 C 36.070312 21.203125 37.675781 21.800781 38.679688 22.992188 Z M 32.644531 20.097656 C 31.363281 20.648438 30.417969 21.304688 29.878906 22.679688 C 29.339844 24.054688 29.304688 26.359375 29.988281 27.660156 C 30.277344 28.214844 31.34375 29.585938 31.738281 29.972656 C 33.484375 31.6875 36.730469 32.039062 38.828125 30.871094 C 40.921875 29.707031 41.910156 26.847656 41.285156 24.398438 C 40.308594 20.578125 38.679688 20.136719 37.058594 19.828125 C 35.5625 19.542969 34.050781 19.492188 32.644531 20.097656 Z M 32.644531 20.097656 "/>
<path style=" stroke:none;fill-rule:nonzero;fill:rgb(0.392157%,0.392157%,0.392157%);fill-opacity:1;" d="M 35.960938 30.078125 C 35.78125 30.078125 35.605469 30.066406 35.429688 30.039062 C 34.730469 29.9375 34.101562 29.652344 33.582031 29.386719 C 32.789062 28.984375 31.675781 28.3125 31.144531 27.171875 C 30.621094 26.050781 30.738281 24.589844 31.453125 23.257812 C 32.082031 22.089844 33.125 21.324219 34.476562 21.03125 C 36.121094 20.683594 37.925781 21.320312 39.0625 22.671875 C 40.199219 24.023438 40.46875 26.074219 39.71875 27.660156 C 39.019531 29.125 37.5 30.078125 35.960938 30.078125 Z M 34.683594 22.011719 C 33.617188 22.242188 32.824219 22.820312 32.335938 23.730469 C 31.769531 24.785156 31.660156 25.914062 32.050781 26.75 C 32.359375 27.414062 32.972656 27.953125 34.035156 28.496094 C 34.484375 28.726562 35.015625 28.96875 35.574219 29.054688 C 36.835938 29.238281 38.230469 28.457031 38.8125 27.230469 C 39.402344 25.988281 39.191406 24.378906 38.296875 23.316406 C 37.398438 22.246094 35.988281 21.730469 34.683594 22.011719 Z M 34.683594 22.011719 "/>
<path style=" stroke:none;fill-rule:nonzero;fill:rgb(0.392157%,0.392157%,0.392157%);fill-opacity:1;" d="M 35.984375 32.0625 C 34.273438 32.0625 32.539062 31.460938 31.386719 30.328125 C 30.980469 29.929688 29.871094 28.523438 29.542969 27.890625 C 28.75 26.378906 28.855469 23.910156 29.410156 22.496094 C 30.054688 20.855469 31.25 20.152344 32.445312 19.640625 C 33.761719 19.074219 35.257812 18.976562 37.152344 19.335938 C 39.011719 19.691406 40.761719 20.335938 41.769531 24.273438 C 42.472656 27.035156 41.3125 30.0625 39.070312 31.308594 C 38.15625 31.820312 37.074219 32.0625 35.984375 32.0625 Z M 35.097656 20.125 C 34.25 20.125 33.515625 20.269531 32.84375 20.558594 C 31.65625 21.066406 30.824219 21.632812 30.34375 22.863281 C 29.878906 24.054688 29.796875 26.222656 30.429688 27.429688 C 30.6875 27.917969 31.707031 29.242188 32.085938 29.617188 C 33.648438 31.152344 36.625 31.53125 38.585938 30.4375 C 40.414062 29.417969 41.386719 26.820312 40.800781 24.523438 C 39.867188 20.871094 38.394531 20.589844 36.964844 20.320312 C 36.285156 20.1875 35.667969 20.125 35.097656 20.125 Z M 32.644531 20.097656 L 32.652344 20.097656 Z M 32.644531 20.097656 "/>
<path style=" stroke:none;fill-rule:nonzero;fill:rgb(21.568627%,21.960784%,21.568627%);fill-opacity:1;" d="M 14.769531 22.136719 C 15.5625 22.539062 16.023438 23.152344 16.242188 24.0625 C 16.34375 24.464844 16.347656 24.890625 16.351562 25.308594 C 16.359375 26.308594 16.335938 27.375 15.804688 28.199219 C 15.222656 29.113281 14.125 29.527344 13.089844 29.496094 C 12.054688 29.46875 11.066406 29.0625 10.117188 28.628906 C 9.878906 28.515625 9.636719 28.402344 9.4375 28.226562 C 9.027344 27.863281 8.84375 27.296875 8.6875 26.753906 C 8.609375 26.484375 8.535156 26.210938 8.492188 25.929688 C 8.347656 24.992188 8.597656 23.59375 9.109375 22.8125 C 9.621094 22.035156 10.804688 21.585938 11.996094 21.484375 C 13.105469 21.386719 13.972656 21.734375 14.769531 22.136719 Z M 10.105469 19.675781 C 9.722656 19.742188 9.335938 19.832031 8.992188 20.023438 C 8.691406 20.191406 8.4375 20.425781 8.199219 20.679688 C 7.027344 21.953125 6.371094 23.714844 6.425781 25.464844 C 6.4375 25.882812 6.507812 26.292969 6.601562 26.699219 C 7.296875 29.765625 9.546875 31.140625 12.921875 31.300781 C 13.273438 31.316406 13.628906 31.320312 13.980469 31.28125 C 15.476562 31.125 16.808594 30.089844 17.546875 28.75 C 18.285156 27.410156 18.476562 25.808594 18.296875 24.277344 C 18.238281 23.785156 18.144531 23.296875 17.980469 22.832031 C 17.535156 21.589844 16.570312 20.550781 15.378906 20.039062 C 14.765625 19.773438 14.105469 19.648438 13.449219 19.550781 C 12.96875 19.480469 10.71875 19.574219 10.105469 19.675781 Z M 10.105469 19.675781 "/>
<path style=" stroke:none;fill-rule:nonzero;fill:rgb(0.392157%,0.392157%,0.392157%);fill-opacity:1;" d="M 13.191406 30 C 13.152344 30 13.113281 30 13.074219 29.996094 C 11.921875 29.964844 10.835938 29.507812 9.90625 29.082031 C 9.679688 28.976562 9.367188 28.835938 9.101562 28.601562 C 8.601562 28.15625 8.386719 27.515625 8.207031 26.894531 C 8.121094 26.601562 8.042969 26.308594 7.996094 26.007812 C 7.828125 24.910156 8.132812 23.386719 8.6875 22.539062 C 9.242188 21.695312 10.464844 21.113281 11.953125 20.984375 C 13.191406 20.875 14.144531 21.261719 14.996094 21.691406 C 15.90625 22.152344 16.472656 22.890625 16.730469 23.941406 C 16.835938 24.382812 16.847656 24.820312 16.851562 25.304688 C 16.863281 26.394531 16.820312 27.539062 16.226562 28.46875 C 15.617188 29.421875 14.464844 30 13.191406 30 Z M 12.039062 21.980469 C 10.886719 22.082031 9.902344 22.515625 9.523438 23.089844 C 9.101562 23.734375 8.851562 25 8.984375 25.855469 C 9.023438 26.113281 9.09375 26.363281 9.167969 26.613281 C 9.3125 27.113281 9.46875 27.585938 9.765625 27.851562 C 9.910156 27.976562 10.097656 28.066406 10.324219 28.171875 C 11.164062 28.558594 12.136719 28.972656 13.105469 28.996094 C 13.855469 29.035156 14.859375 28.75 15.386719 27.929688 C 15.832031 27.230469 15.863281 26.292969 15.851562 25.3125 C 15.851562 24.875 15.839844 24.515625 15.757812 24.179688 C 15.570312 23.40625 15.195312 22.914062 14.542969 22.585938 C 13.714844 22.164062 12.976562 21.902344 12.039062 21.980469 Z M 12.039062 21.980469 "/>
<path style=" stroke:none;fill-rule:nonzero;fill:rgb(0.392157%,0.392157%,0.392157%);fill-opacity:1;" d="M 13.386719 31.8125 C 13.207031 31.8125 13.042969 31.804688 12.898438 31.800781 C 9.109375 31.621094 6.828125 29.941406 6.117188 26.8125 C 5.996094 26.296875 5.9375 25.875 5.925781 25.484375 C 5.871094 23.589844 6.566406 21.71875 7.835938 20.34375 C 8.15625 19.996094 8.445312 19.757812 8.753906 19.585938 C 9.175781 19.351562 9.632812 19.25 10.023438 19.183594 C 10.671875 19.074219 12.980469 18.976562 13.523438 19.054688 C 14.152344 19.148438 14.890625 19.285156 15.578125 19.582031 C 16.890625 20.144531 17.964844 21.296875 18.453125 22.664062 C 18.613281 23.117188 18.726562 23.628906 18.796875 24.222656 C 18.945312 25.464844 18.921875 27.300781 17.984375 28.992188 C 17.128906 30.546875 15.617188 31.613281 14.039062 31.78125 C 13.8125 31.804688 13.589844 31.8125 13.386719 31.8125 Z M 10.1875 20.171875 C 9.882812 20.222656 9.527344 20.296875 9.238281 20.460938 C 9.027344 20.578125 8.8125 20.753906 8.570312 21.019531 C 7.476562 22.207031 6.875 23.820312 6.925781 25.453125 C 6.933594 25.777344 6.988281 26.140625 7.089844 26.589844 C 7.699219 29.265625 9.613281 30.644531 12.945312 30.800781 C 13.21875 30.8125 13.574219 30.824219 13.929688 30.785156 C 15.1875 30.652344 16.40625 29.78125 17.109375 28.511719 C 17.738281 27.371094 17.984375 25.890625 17.800781 24.339844 C 17.738281 23.820312 17.644531 23.386719 17.507812 23.003906 C 17.109375 21.894531 16.238281 20.957031 15.179688 20.5 C 14.597656 20.25 13.941406 20.128906 13.375 20.046875 C 12.976562 19.988281 10.769531 20.070312 10.1875 20.171875 Z M 10.1875 20.171875 "/>
</g>
</svg>
