<?xml version="1.0" encoding="UTF-8" standalone="no"?>
<svg
   xmlns:dc="http://purl.org/dc/elements/1.1/"
   xmlns:cc="http://creativecommons.org/ns#"
   xmlns:rdf="http://www.w3.org/1999/02/22-rdf-syntax-ns#"
   xmlns:svg="http://www.w3.org/2000/svg"
   xmlns="http://www.w3.org/2000/svg"
   xmlns:sodipodi="http://sodipodi.sourceforge.net/DTD/sodipodi-0.dtd"
   xmlns:inkscape="http://www.inkscape.org/namespaces/inkscape"
   width="166.00064mm"
   height="168.49971mm"
   viewBox="0 0 166.00064 168.49971"
   version="1.1"
   id="svg166"
   sodipodi:docname="elmana2.svg"
   inkscape:version="1.0 (b51213c273, 2020-08-10)">
  <sodipodi:namedview
     pagecolor="#ffffff"
     bordercolor="#666666"
     borderopacity="1"
     objecttolerance="10"
     gridtolerance="10"
     guidetolerance="10"
     inkscape:pageopacity="0"
     inkscape:pageshadow="2"
     inkscape:window-width="1884"
     inkscape:window-height="2084"
     id="namedview1170"
     showgrid="false"
     inkscape:zoom="2.0449344"
     inkscape:cx="313.702"
     inkscape:cy="318.42465"
     inkscape:window-x="72"
     inkscape:window-y="39"
     inkscape:window-maximized="0"
     inkscape:current-layer="svg166" />
  <defs
     id="defs160">
    <clipPath
       clipPathUnits="userSpaceOnUse"
       id="clipPath184">
      <path
         d="M 0,595.281 H 841.89 V 0 H 0 Z"
         id="path182" />
    </clipPath>
  </defs>
  <metadata
     id="metadata163">
    <rdf:RDF>
      <cc:Work
         rdf:about="">
        <dc:format>image/svg+xml</dc:format>
        <dc:type
           rdf:resource="http://purl.org/dc/dcmitype/StillImage" />
        <dc:title></dc:title>
      </cc:Work>
    </rdf:RDF>
  </metadata>
  <g
     id="layer1"
     transform="translate(-13.457059,-80.790914)">
    <g
       id="g180"
       clip-path="url(#clipPath184)"
       transform="matrix(0.35277777,0,0,-0.35277777,-52.042625,270.0419)">
      <g
         id="g186"
         transform="translate(420.9444,532.8125)">
        <path
           d="m 0,0 c -33.065,0 -64.381,-5.921 -93.074,-17.598 -27.873,-11.343 -52.525,-27.793 -73.272,-48.893 -20.728,-21.081 -36.887,-46.12 -48.028,-74.423 -11.45,-29.087 -17.256,-60.799 -17.256,-94.255 0,-136.269 97.415,-235.175 231.63,-235.175 134.216,0 231.631,98.906 231.631,235.175 0,25.933 -3.541,51.027 -10.526,74.586 -6.148,20.74 -14.947,40.253 -26.19,58.092 l 0.334,-15.736 c 9.075,-16.828 16.072,-35.181 20.8,-54.553 4.855,-19.898 7.317,-40.888 7.317,-62.389 0,-32.684 -5.601,-63.664 -16.65,-92.081 -10.76,-27.674 -26.37,-52.158 -46.398,-72.772 -20.034,-20.623 -43.835,-36.698 -70.738,-47.78 -27.64,-11.384 -57.778,-17.156 -89.58,-17.156 -31.801,0 -61.939,5.772 -89.579,17.156 -26.903,11.082 -50.704,27.157 -70.738,47.78 -20.028,20.614 -35.638,45.098 -46.398,72.772 -11.048,28.417 -16.65,59.397 -16.65,92.081 0,32.698 5.579,63.677 16.582,92.077 10.727,27.686 26.3,52.171 46.285,72.774 20.01,20.628 43.803,36.704 70.718,47.781 27.663,11.385 57.869,17.158 89.78,17.158 27.436,0 50.828,-6.984 67.648,-20.196 8.268,-6.494 14.708,-14.33 19.143,-23.289 4.516,-9.123 6.866,-19.25 6.987,-30.098 0,-15.604 -7.484,-27.519 -14.721,-39.043 -6.396,-10.181 -12.436,-19.798 -12.436,-30.945 0,-14.601 4.696,-27.034 13.583,-35.956 8.915,-8.951 21.38,-13.682 36.045,-13.682 18.135,0 33.541,7.294 44.554,21.094 11.114,13.928 16.989,33.473 16.991,56.523 -0.115,17.803 -4.452,34.403 -12.89,49.342 -8.276,14.653 -20.364,27.489 -35.927,38.15 -15.64,10.712 -34.487,19.023 -56.02,24.702 C 50.874,-2.953 26.328,0 0,0 m 0,-473.99 c -33.429,0 -65.138,6.011 -94.247,17.867 -28.325,11.536 -53.397,28.262 -74.519,49.713 -21.116,21.444 -37.579,46.895 -48.933,75.644 -11.663,29.533 -17.577,61.696 -17.577,95.597 0,33.915 5.89,66.077 17.508,95.591 11.323,28.761 27.748,54.212 48.822,75.644 21.097,21.456 46.162,38.183 74.498,49.714 C -65.316,-2.365 -33.539,3.647 0,3.647 c 26.642,0 51.501,-2.994 73.888,-8.898 21.936,-5.786 41.164,-14.271 57.149,-25.22 16.026,-10.978 28.489,-24.222 37.043,-39.365 8.746,-15.485 13.241,-32.681 13.361,-51.111 v -0.012 c 0,-23.891 -6.151,-44.227 -17.789,-58.81 -11.728,-14.697 -28.121,-22.466 -47.403,-22.466 -31.865,0 -53.274,21.414 -53.274,53.285 0,12.197 6.311,22.246 12.993,32.885 6.964,11.086 14.164,22.549 14.164,37.083 -0.23,20.525 -8.782,38.008 -24.736,50.539 C 49.224,-15.74 26.61,-9.026 0,-9.026 c -31.433,0 -61.172,-5.68 -88.393,-16.883 -26.449,-10.886 -49.828,-26.681 -69.487,-46.948 -19.643,-20.251 -34.953,-44.325 -45.503,-71.553 -10.839,-27.978 -16.335,-58.513 -16.335,-90.759 0,-32.229 5.519,-62.766 16.403,-90.76 10.581,-27.217 25.927,-51.29 45.613,-71.553 19.684,-20.262 43.072,-36.057 69.512,-46.948 27.197,-11.202 56.869,-16.882 88.19,-16.882 31.322,0 60.994,5.68 88.191,16.882 26.44,10.891 49.828,26.686 69.512,46.948 19.686,20.263 35.032,44.336 45.614,71.553 10.884,27.994 16.403,58.531 16.403,90.76 0,21.21 -2.428,41.909 -7.214,61.524 -4.69,19.219 -11.645,37.411 -20.674,54.07 -0.138,0.256 -0.213,0.54 -0.22,0.831 l -0.478,22.571 c -0.017,0.809 0.502,1.533 1.274,1.777 0.772,0.244 1.613,-0.05 2.064,-0.723 13.12,-19.567 23.257,-41.243 30.13,-64.427 7.084,-23.896 10.675,-49.339 10.675,-75.623 0,-33.901 -5.914,-66.064 -17.577,-95.597 -11.354,-28.749 -27.817,-54.2 -48.933,-75.644 -21.122,-21.451 -46.194,-38.177 -74.519,-49.713 C 65.139,-467.979 33.43,-473.99 0,-473.99"
           style="fill:#ff00ff;fill-opacity:1;fill-rule:nonzero;stroke:none"
           id="path188" />
      </g>
      <g
         id="g190"
         transform="translate(384.8839,442.4199)">
        <path
           d="M 0,0 C 0,0 2.623,-15.739 1.312,-18.362 0,-20.985 -6.559,-23.171 0,-20.985 6.558,-18.799 16.613,-9.181 12.679,4.81"
           style="fill:none;stroke:#ff00ff;stroke-width:3;stroke-linecap:round;stroke-linejoin:round;stroke-miterlimit:10;stroke-dasharray:none;stroke-opacity:1"
           id="path192" />
      </g>
      <g
         id="g194"
         transform="translate(316.3262,295.0264)">
        <path
           d="m 0,0 c 0,0 -28.282,0.491 -33.939,0.245 -5.657,-0.245 -3.198,4.427 -3.198,4.427 0,0 36.645,52.385 38.366,55.336 1.722,2.951 2.952,1.23 2.952,1.23 C 3.443,59.024 0,0 0,0 Z m 54.567,163.57 c 0,0 7.432,-17.925 13.991,-16.176 6.557,1.749 12.678,4.809 12.678,4.809 0,0 1.748,16.176 -5.246,23.609 -6.996,7.432 -21.423,8.744 -31.042,0.874 -9.618,-7.87 -19.674,-25.795 -1.311,-44.157 18.362,-18.362 17.926,-25.795 17.926,-25.795 0,0 6.12,-13.553 -3.061,-16.176 -9.182,-2.624 -11.805,5.246 -11.367,10.055 0.436,4.809 -4.372,34.976 -33.665,37.599 -29.292,2.624 -67.329,-21.859 -83.943,-43.282 -16.614,-21.423 -4.809,-13.991 -4.809,-13.991 0,0 11.367,3.935 13.116,3.935 1.749,0 32.79,-18.363 55.088,-16.614 0,0 3.497,-2.186 0.874,-5.683 -2.623,-3.498 -6.558,-8.744 -9.618,-16.177 -3.061,-7.432 -27.544,-40.659 -27.544,-40.659 0,0 -4.372,-9.181 3.06,-9.181 7.433,0 40.66,-1.749 40.66,-1.749 l 3.06,-74.325 c 0,0 -1.311,-3.06 -3.06,-3.934 -1.749,-0.875 -6.996,-3.936 -5.684,-4.81 1.311,-0.874 31.916,-0.437 33.665,-0.437 1.748,0 -19.674,6.121 -19.674,7.87 0,1.749 -1.749,74.324 -1.749,74.324 l 16.206,0.598 c 0,0 -2.295,-3.443 1.23,-3.443 5.165,0 3.112,-12.02 3.112,-12.02 0,0 6.559,6.995 6.121,10.93 -0.437,3.935 -3.935,8.744 -11.367,8.744 -7.433,0 -15.739,0.437 -15.739,0.437 0,0 2.26,60.334 4.883,65.143 l 2.623,4.809 c 0,0 9.982,1.312 12.167,3.498 2.187,2.186 17.449,-10.235 31.916,-4.809 13.991,5.246 20.986,18.363 18.363,29.292 0,0 1.68,15.918 -27.981,41.534 0,0 -10.055,10.494 -3.935,20.549 6.121,10.055 10.056,4.809 10.056,4.809 z"
           style="fill:none;stroke:#ff00ff;stroke-width:3;stroke-linecap:round;stroke-linejoin:round;stroke-miterlimit:10;stroke-dasharray:none;stroke-opacity:1"
           id="path196" />
      </g>
      <g
         id="g198"
         transform="translate(408.7315,321.6904)">
        <path
           d="m 0,0 h -0.813 c -1.22,10.654 -8.622,16.428 -18.462,16.428 -1.871,0 -3.742,-0.325 -4.311,-0.488 V -8.865 h 4.23 c 5.53,0 10.329,3.66 10.329,11.386 h 0.812 v -26.025 h -0.812 c 0,6.588 -3.579,13.663 -11.793,13.663 h -2.766 v -21.633 c 0,-5.774 1.952,-7.238 6.1,-7.238 8.54,0 17.486,7.97 19.925,21.471 h 0.895 l -3.741,-22.284 c -14.72,0.081 -25.13,0.244 -32.694,0.244 -8.458,0 -15.615,-0.244 -15.615,-0.244 v 0.813 c 4.148,0 6.1,3.822 6.1,10.166 V 9.353 c 0,5.774 -1.952,7.238 -6.1,7.238 v 0.813 c 0,0 7.157,-0.244 15.615,-0.244 7.239,0 19.275,0.163 33.101,0.244 z"
           style="fill:#ff00ff;fill-opacity:1;fill-rule:nonzero;stroke:none"
           id="path200" />
      </g>
      <g
         id="g202"
         transform="translate(440.8555,282.165)">
        <path
           d="M 0,0 C 0,0 -3.904,0.244 -12.118,0.244 -20.251,0.244 -25.863,0 -25.863,0 v 0.731 c 3.172,0 4.635,2.197 4.635,5.694 V 52.05 c 0,3.172 -1.382,4.148 -4.31,4.148 l -0.325,0.732 c 12.362,0 22.691,4.066 22.691,4.066 V 3.822 C -3.172,1.383 -1.79,0.731 0,0.731 Z"
           style="fill:#ff00ff;fill-opacity:1;fill-rule:nonzero;stroke:none"
           id="path204" />
      </g>
      <g
         id="g206"
         transform="translate(434.3497,258.7227)">
        <path
           d="m 0,0 c -4.147,0 -6.263,-1.464 -6.1,-7.238 l 3.661,-40.827 c 0.487,-5.775 1.951,-7.239 6.099,-7.239 v -0.813 c 0,0 -6.344,0.244 -15.209,0.244 -8.864,0 -16.347,-0.244 -16.347,-0.244 v 0.813 c 3.742,0 6.425,2.603 5.775,10.492 l -3.01,36.11 -12.117,-47.415 -9.76,-1.464 -16.916,50.586 -2.847,-34.483 c -0.813,-9.515 2.522,-13.826 8.052,-13.826 v -0.813 c 0,0 -4.554,0.244 -9.19,0.244 -3.416,0 -7.238,-0.244 -7.238,-0.244 v 0.813 c 3.66,0 6.262,2.116 7.075,11.143 L -64.9,-7.238 C -64.412,-1.627 -66.852,0 -71,0 v 0.813 c 0,0 11.387,-0.244 26.514,-0.244 0,-3.823 0.487,-6.424 1.464,-9.678 l 9.027,-30.254 7.808,30.742 c 1.544,6.018 0.731,9.19 0.731,9.19 C -13.257,0.569 0,0.813 0,0.813 Z"
           style="fill:#ff00ff;fill-opacity:1;fill-rule:nonzero;stroke:none"
           id="path208" />
      </g>
      <g
         id="g210"
         transform="translate(463.7901,215.7002)">
        <path
           d="M 0,0 C 0,4.392 0.325,6.587 0.325,6.587 -4.147,5.692 -6.019,0.976 -6.019,-4.311 c 0,-3.741 1.139,-6.099 3.661,-6.099 1.381,0 2.439,0.569 4.066,1.138 C 1.708,-9.272 0,-7.076 0,0 m 17.241,-5.937 c 0,-4.229 1.383,-5.287 3.091,-5.287 0.814,0 1.789,0.57 2.358,1.301 l 0.326,-0.243 c -1.545,-2.685 -5.612,-4.311 -10.492,-4.311 -4.31,0 -8.377,1.139 -10.572,4.554 -3.66,-0.975 -8.052,-4.798 -15.128,-4.798 -5.855,0 -10.978,2.603 -10.978,8.784 0,8.295 8.702,13.256 24.479,13.256 0,0 0.488,5.531 0.488,11.711 0,5.612 -1.219,7.889 -4.229,7.889 -3.009,0 -4.555,-2.684 -4.555,-6.018 0,-3.009 0.814,-5.043 2.36,-7.32 -2.197,-1.708 -6.019,-2.846 -8.621,-2.846 -4.392,0 -7.239,2.521 -7.239,6.181 0,6.831 11.061,10.653 20.983,10.653 13.988,0 18.543,-5.205 18.543,-16.346 0,-7.726 -0.814,-11.468 -0.814,-17.16"
           style="fill:#ff00ff;fill-opacity:1;fill-rule:nonzero;stroke:none"
           id="path212" />
      </g>
      <g
         id="g214"
         transform="translate(514.4571,202.6055)">
        <path
           d="M 0,0 C 0,0 -3.904,0.244 -12.118,0.244 -20.251,0.244 -25.863,0 -25.863,0 v 0.732 c 3.172,0 4.635,2.197 4.635,5.694 v 25.293 c 0,3.172 -1.381,4.31 -4.31,4.31 l -0.325,0.651 c 12.362,0 22.691,3.984 22.691,3.984 v -6.343 c 4.798,1.789 9.109,6.343 15.452,6.343 6.506,0 10.247,-3.984 10.247,-11.467 V 5.043 c 0,-3.66 1.301,-4.311 4.473,-4.311 V 0 C 27,0 21.633,0.244 13.581,0.244 6.018,0.244 1.464,0 1.464,0 v 0.732 c 2.195,0 3.009,1.057 3.009,3.823 v 26.757 c 0,2.358 -1.302,3.579 -2.928,3.579 -1.545,0 -2.603,-0.57 -4.717,-1.221 V 3.822 c 0,-2.439 1.382,-3.09 3.172,-3.09 z"
           style="fill:#ff00ff;fill-opacity:1;fill-rule:nonzero;stroke:none"
           id="path216" />
      </g>
      <g
         id="g218"
         transform="translate(568.7022,215.7002)">
        <path
           d="M 0,0 C 0,4.392 0.325,6.587 0.325,6.587 -4.147,5.692 -6.019,0.976 -6.019,-4.311 c 0,-3.741 1.139,-6.099 3.661,-6.099 1.381,0 2.439,0.569 4.066,1.138 C 1.708,-9.272 0,-7.076 0,0 M -9.353,30.904 -9.516,31.148 1.22,47.901 c 3.66,0 5.774,-2.358 5.774,-5.042 0,-5.611 -8.133,-10.166 -16.347,-11.955 M 17.241,-5.937 c 0,-4.229 1.383,-5.287 3.091,-5.287 0.814,0 1.789,0.57 2.358,1.301 l 0.326,-0.243 c -1.545,-2.685 -5.612,-4.311 -10.492,-4.311 -4.31,0 -8.377,1.139 -10.573,4.554 -3.659,-0.975 -8.051,-4.798 -15.127,-4.798 -5.855,0 -10.979,2.603 -10.979,8.784 0,8.295 8.702,13.256 24.48,13.256 0,0 0.487,5.531 0.487,11.711 0,5.612 -1.219,7.889 -4.228,7.889 -3.01,0 -4.555,-2.684 -4.555,-6.018 0,-3.009 0.814,-5.043 2.359,-7.32 -2.196,-1.708 -6.018,-2.846 -8.62,-2.846 -4.393,0 -7.239,2.521 -7.239,6.181 0,6.831 11.061,10.653 20.983,10.653 13.988,0 18.543,-5.205 18.543,-16.346 0,-7.726 -0.814,-11.468 -0.814,-17.16"
           style="fill:#ff00ff;fill-opacity:1;fill-rule:nonzero;stroke:none"
           id="path220" />
      </g>
      <g
         id="g222"
         transform="translate(327.6651,183.6875)">
        <path
           d="m 0,0 c -0.031,0.723 -0.637,1.301 -1.376,1.301 h -18.886 c -0.74,0 -1.344,-0.578 -1.377,-1.301 l -0.416,-6.343 2.677,-0.334 0.278,4.31 c 0.049,0.663 0.158,0.798 0.159,0.8 0.005,0.005 0.157,0.113 0.864,0.113 h 5.881 v -21.718 c -0.225,-0.036 -0.606,-0.072 -1.233,-0.072 h -1.867 v -2.674 h 8.953 v 2.674 h -1.785 c -0.627,0 -1.008,0.036 -1.231,0.072 v 21.718 h 5.797 c 0.708,0 0.859,-0.108 0.862,-0.109 0.005,-0.006 0.113,-0.141 0.161,-0.793 l 0.278,-4.321 2.677,0.334 z"
           style="fill:#ff00ff;fill-opacity:1;fill-rule:nonzero;stroke:none"
           id="path224" />
      </g>
      <g
         id="g226"
         transform="translate(335.5469,174.4863)">
        <path
           d="m 0,0 c 3.14,0 5.351,-1.923 5.914,-5.143 l 0.011,-0.054 c 0.006,-0.027 0.012,-0.066 0.016,-0.12 H -6.208 C -5.591,-2.131 -3.176,0 0,0 m 8.252,-11.184 -2.415,1.341 -0.593,-1.051 c -1.178,-2.089 -3.231,-3.149 -6.101,-3.149 -3.335,0 -5.753,2.406 -6.149,5.97 H 6.808 c 0.759,0 1.378,0.618 1.378,1.378 0,5.564 -3.652,9.451 -8.88,9.451 -5.168,0 -9.039,-3.952 -9.205,-9.398 L -9.9,-7.021 c 0,-5.666 3.802,-9.778 9.043,-9.778 3.842,0 6.866,1.616 8.512,4.552 z"
           style="fill:#ff00ff;fill-opacity:1;fill-rule:nonzero;stroke:none"
           id="path228" />
      </g>
      <g
         id="g230"
         transform="translate(372.5196,160.5156)">
        <path
           d="m 0,0 v 10.945 c 0,3.62 -2.223,5.782 -5.944,5.782 -2.341,0 -4.535,-1.262 -6.115,-3.388 -0.801,2.158 -2.782,3.388 -5.628,3.388 -2.158,0 -4.182,-1.061 -5.717,-2.876 v 2.871 l -3.334,-0.077 h -1.622 v -2.674 h 1.622 c 0.216,0 0.377,-0.008 0.498,-0.018 V 0 c -0.225,-0.036 -0.606,-0.072 -1.233,-0.072 h -1.867 v -2.674 h 9.279 v 2.674 h -2.111 c -0.627,0 -1.008,0.036 -1.232,0.072 v 6.003 c 0,4.219 2.672,7.919 5.717,7.919 2.206,0 3.189,-0.934 3.189,-3.026 V 0 c -0.224,-0.036 -0.605,-0.072 -1.232,-0.072 h -1.704 v -2.674 h 8.708 v 2.674 h -1.704 c -0.627,0 -1.008,0.036 -1.231,0.072 v 6.003 c 0,4.219 2.671,7.919 5.717,7.919 2.177,0 3.107,-0.904 3.107,-3.026 L -2.837,0 c -0.224,-0.036 -0.604,-0.072 -1.232,-0.072 h -1.703 v -2.674 h 8.871 v 2.674 H 1.231 C 0.604,-0.072 0.224,-0.036 0,0"
           style="fill:#ff00ff;fill-opacity:1;fill-rule:nonzero;stroke:none"
           id="path232" />
      </g>
      <g
         id="g234"
         transform="translate(420.001,160.4434)">
        <path
           d="m 0,0 c -3.75,0 -6.369,2.888 -6.369,7.021 0,4.134 2.619,7.022 6.369,7.022 3.75,0 6.369,-2.888 6.369,-7.022 C 6.369,2.888 3.75,0 0,0 m -37.024,0 c -2.702,0 -4.739,1.195 -4.739,2.781 0,0.691 0,2.525 4.876,3.032 0.22,0.022 0.473,0.042 0.75,0.064 1.401,0.112 3.241,0.259 4.748,0.846 V 5.799 C -31.389,3.062 -33.799,0 -37.024,0 M 0,16.799 c -5.335,0 -9.206,-4.112 -9.206,-9.778 0,-1.063 0.136,-2.071 0.393,-3.008 l -2.411,0.321 -0.279,-3.559 C -11.553,0.178 -11.749,0.081 -12.2,0.081 h -9.559 l 9.885,12.181 c 1.143,1.421 1.657,1.664 1.754,1.7 h 1.173 v 2.755 h -15.42 c -0.748,0 -1.359,-0.592 -1.377,-1.326 l -0.199,-5.183 2.46,-0.701 0.294,3.792 c 0.046,0.571 0.203,0.663 0.681,0.663 h 8.465 L -23.925,1.784 c -0.313,-0.387 -1.254,-1.548 -1.627,-1.703 h -0.097 l -0.028,0.271 -2.428,-0.227 c -0.056,0.174 -0.128,0.456 -0.203,0.9 l -0.244,1.45 V 10.3 c 0,0.854 -0.142,1.656 -0.408,2.385 v 0.754 l -0.184,-0.304 c -1.008,2.226 -3.223,3.664 -5.988,3.664 -4.348,0 -7.755,-2.103 -7.755,-4.787 0,-0.888 0.669,-1.557 1.557,-1.557 0.888,0 1.558,0.669 1.558,1.557 0,0.828 1.826,2.031 4.689,2.031 2.162,0 3.682,-1.542 3.694,-3.743 v -0.098 c 0,-0.003 0,-0.056 -0.033,-0.181 -0.329,-0.969 -3.725,-1.278 -5.009,-1.395 -0.265,-0.024 -0.513,-0.047 -0.734,-0.07 -3.392,-0.349 -7.435,-1.635 -7.435,-5.775 0,-3.208 3.187,-5.537 7.576,-5.537 2.274,0 4.446,1.015 6.022,2.717 0.229,-1.06 0.808,-2.717 2.491,-2.717 h 0.083 l 1.633,0.225 -0.008,-0.143 h 16.446 c 0.735,0 1.338,0.573 1.376,1.291 l 0.366,4.764 C -7.34,-0.32 -4.104,-2.756 0,-2.756 c 5.334,0 9.206,4.112 9.206,9.777 0,5.666 -3.872,9.778 -9.206,9.778"
           style="fill:#ff00ff;fill-opacity:1;fill-rule:nonzero;stroke:none"
           id="path236" />
      </g>
      <g
         id="g238"
         transform="translate(437.3057,169.8652)">
        <path
           d="m 0,0 c -2.01,0.578 -4.51,1.296 -4.51,2.183 0,1.389 1.791,2.438 4.167,2.438 C 1.381,4.621 2.74,4.193 3.819,3.31 4.279,2.937 4.457,2.014 4.568,1.169 L 4.579,1.077 c 0.056,-0.691 0.624,-1.218 1.341,-1.218 0.755,0 1.346,0.583 1.346,1.328 L 7.042,7.295 H 4.352 L 4.39,6.237 c -1.358,0.757 -2.944,1.14 -4.733,1.14 -4.058,0 -7.004,-2.185 -7.004,-5.194 0,-3.062 3.417,-4.049 6.722,-5.004 3.771,-1.09 6.244,-1.963 6.244,-4.081 0,-1.239 -2.047,-2.52 -5.473,-2.52 -2.066,0 -3.187,0.373 -4.609,1.533 -0.49,0.405 -1.074,1.117 -1.074,2.21 v 1.395 h -2.631 l -0.284,-7.812 h 2.668 l 0.07,1.649 c 1.917,-1.427 3.693,-1.731 5.86,-1.731 4.893,0 8.31,2.17 8.31,5.276 C 8.456,-2.429 3.768,-1.082 0,0"
           style="fill:#ff00ff;fill-opacity:1;fill-rule:nonzero;stroke:none"
           id="path240" />
      </g>
      <g
         id="g242"
         transform="translate(466.8594,160.4434)">
        <path
           d="m 0,0 c -3.246,0 -5.603,2.953 -5.603,7.021 0,4.069 2.288,7.022 5.44,7.022 1.537,0 3.262,-0.653 5.016,-1.894 V 3.803 C 4.056,1.418 2.253,0 0,0 M 8.056,0.058 C 7.969,0.283 7.874,0.632 7.831,1.08 L 7.689,2.656 V 24.622 L 4.354,24.545 H 2.406 v -2.674 h 1.948 c 0.216,0 0.378,-0.007 0.499,-0.017 v -6.463 c -1.706,0.925 -3.411,1.408 -5.016,1.408 -4.796,0 -8.276,-4.112 -8.276,-9.778 0,-5.665 3.548,-9.777 8.439,-9.777 2.037,0 3.884,0.757 5.302,2.132 0.45,-1.33 1.323,-2.132 2.428,-2.132 h 0.099 l 2.938,0.48 -0.547,2.735 z"
           style="fill:#ff00ff;fill-opacity:1;fill-rule:nonzero;stroke:none"
           id="path244" />
      </g>
      <g
         id="g246"
         transform="translate(485.6163,174.4863)">
        <path
           d="m 0,0 c 3.141,0 5.352,-1.923 5.915,-5.143 l 0.01,-0.054 c 0.007,-0.027 0.012,-0.066 0.016,-0.12 H -6.208 C -5.591,-2.131 -3.176,0 0,0 m 5.938,-10.894 c -1.177,-2.089 -3.231,-3.149 -6.101,-3.149 -3.335,0 -5.753,2.406 -6.149,5.97 H 7.503 c 0.759,0 1.377,0.618 1.377,1.378 0,5.564 -3.651,9.451 -8.88,9.451 -5.168,0 -9.039,-3.952 -9.205,-9.398 l -10e-4,-0.379 c 0,-5.666 3.803,-9.778 9.043,-9.778 3.843,0 6.866,1.616 8.513,4.552 l 0.596,1.063 -2.415,1.341 z"
           style="fill:#ff00ff;fill-opacity:1;fill-rule:nonzero;stroke:none"
           id="path248" />
      </g>
      <g
         id="g250"
         transform="translate(512.9278,160.5156)">
        <path
           d="m 0,0 v 24.55 l -3.335,-0.077 h -1.948 v -2.674 h 1.948 c 0.216,0 0.378,-0.007 0.498,-0.017 L -2.837,0 c -0.225,-0.036 -0.604,-0.072 -1.231,-0.072 h -1.868 v -2.674 h 8.954 v 2.674 H 1.231 C 0.604,-0.072 0.224,-0.036 0,0"
           style="fill:#ff00ff;fill-opacity:1;fill-rule:nonzero;stroke:none"
           id="path252" />
      </g>
      <g
         id="g254"
         transform="translate(524.2393,160.4434)">
        <path
           d="m 0,0 c -3.75,0 -6.369,2.888 -6.369,7.021 0,4.134 2.619,7.022 6.369,7.022 3.75,0 6.369,-2.888 6.369,-7.022 C 6.369,2.888 3.75,0 0,0 m 0,16.799 c -5.334,0 -9.206,-4.112 -9.206,-9.778 0,-5.665 3.872,-9.777 9.206,-9.777 5.335,0 9.206,4.112 9.206,9.777 0,5.666 -3.871,9.778 -9.206,9.778"
           style="fill:#ff00ff;fill-opacity:1;fill-rule:nonzero;stroke:none"
           id="path256" />
      </g>
      <g
         id="g258"
         transform="translate(541.544,169.8652)">
        <path
           d="m 0,0 c -2.009,0.578 -4.51,1.296 -4.51,2.183 0,1.389 1.792,2.438 4.168,2.438 1.724,0 3.083,-0.428 4.161,-1.311 C 4.28,2.937 4.457,2.014 4.568,1.169 L 4.58,1.077 c 0.055,-0.691 0.624,-1.218 1.341,-1.218 0.754,0 1.345,0.583 1.345,1.328 L 7.042,7.295 H 4.352 L 4.39,6.237 c -1.358,0.757 -2.943,1.14 -4.732,1.14 -4.058,0 -7.005,-2.185 -7.005,-5.194 0,-3.062 3.417,-4.049 6.722,-5.004 3.771,-1.09 6.244,-1.963 6.244,-4.081 0,-1.239 -2.047,-2.52 -5.473,-2.52 -2.066,0 -3.187,0.373 -4.608,1.533 -0.49,0.405 -1.075,1.116 -1.075,2.21 v 1.395 h -2.63 l -0.285,-7.812 h 2.669 l 0.07,1.649 c 1.916,-1.427 3.692,-1.731 5.859,-1.731 4.893,0 8.31,2.17 8.31,5.276 C 8.456,-2.429 3.768,-1.082 0,0"
           style="fill:#ff00ff;fill-opacity:1;fill-rule:nonzero;stroke:none"
           id="path260" />
      </g>
      <g
         id="g262"
         transform="translate(386.3008,112.6426)">
        <path
           d="m 0,0 c -4.677,0 -8.071,5.535 -8.071,13.162 0,7.627 3.394,13.163 8.071,13.163 4.678,0 8.072,-5.536 8.072,-13.163 C 8.072,5.535 4.678,0 0,0 m -23.334,26.325 c 3.316,0 5.632,-1.741 5.632,-4.233 0,-3.166 -3.516,-4.315 -5.766,-4.726 -1.373,0.232 -5.389,1.209 -5.392,4.722 0.019,2.495 2.291,4.237 5.526,4.237 m 0,-26.325 c -5.145,0 -8.602,2.8 -8.602,6.968 0,1.306 0.001,5.255 8.207,6.714 5.9,-0.988 8.891,-3.41 8.891,-7.202 0,-3.937 -3.335,-6.48 -8.496,-6.48 M 0,29.908 c -6.814,0 -11.761,-7.042 -11.761,-16.746 0,-1.539 0.125,-3.011 0.362,-4.398 -0.699,3.06 -2.851,5.448 -6.289,6.992 2.308,1.51 3.57,3.695 3.57,6.336 0,4.529 -3.876,7.816 -9.216,7.816 -5.254,0 -9.216,-3.36 -9.216,-7.816 0,-2.552 1.204,-4.769 3.305,-6.309 -5.08,-2.214 -6.275,-5.869 -6.275,-8.815 0,-6.213 5.011,-10.552 12.186,-10.552 7.175,0 12.186,4.139 12.186,10.064 0,0.518 -0.036,1.021 -0.106,1.508 C -9.83,1.055 -5.53,-3.584 0,-3.584 c 6.815,0 11.762,7.043 11.762,16.746 0,9.704 -4.947,16.746 -11.762,16.746"
           style="fill:#ff00ff;fill-opacity:1;fill-rule:nonzero;stroke:none"
           id="path264" />
      </g>
      <g
         id="g266"
         transform="translate(403.1339,145.5742)">
        <path
           d="m 0,0 -0.401,-0.242 c -0.467,0.431 -1.045,0.612 -1.581,0.612 -1.34,0 -2.429,-1.089 -2.429,-2.428 0,-0.814 0.403,-1.537 1.02,-1.977 -0.19,-0.41 -0.492,-0.885 -0.911,-1.438 l -0.96,-1.266 2.865,-2.147 0.95,1.247 c 1.187,1.558 1.977,2.966 1.977,4.775 0,0.935 -0.208,1.635 -0.53,2.138 z"
           style="fill:#ff00ff;fill-opacity:1;fill-rule:nonzero;stroke:none"
           id="path268" />
      </g>
      <g
         id="g270"
         transform="translate(415.2774,124.8965)">
        <path
           d="m 0,0 c -2.612,0.751 -5.865,1.686 -5.865,2.839 0,1.807 2.33,3.171 5.421,3.171 2.241,0 4.009,-0.556 5.412,-1.706 C 5.567,3.819 5.797,2.619 5.942,1.516 L 5.957,1.398 C 6.03,0.5 6.771,-0.184 7.701,-0.184 c 0.981,0 1.749,0.759 1.749,1.728 L 9.16,9.488 H 5.66 L 5.71,8.111 c -1.765,0.986 -3.827,1.483 -6.154,1.483 -5.279,0 -9.111,-2.841 -9.111,-6.755 0,-3.983 4.445,-5.267 8.743,-6.509 4.905,-1.417 8.122,-2.553 8.122,-5.307 0,-1.611 -2.664,-3.277 -7.119,-3.277 -2.687,0 -4.145,0.485 -5.995,1.993 -0.637,0.526 -1.397,1.452 -1.397,2.875 v 1.814 h -3.421 l -0.37,-10.16 h 3.471 l 0.091,2.144 c 2.493,-1.855 4.802,-2.25 7.621,-2.25 6.364,0 10.808,2.821 10.808,6.861 C 10.999,-3.159 4.9,-1.407 0,0"
           style="fill:#ff00ff;fill-opacity:1;fill-rule:nonzero;stroke:none"
           id="path272" />
      </g>
      <g
         id="g274"
         transform="translate(453.9708,121.0205)">
        <path
           d="m 0,0 c -4.432,0 -7.647,3.797 -7.647,9.026 0,5.253 3.406,8.921 8.283,8.921 3.741,0 6.51,-3.633 7.242,-9.488 C 7.873,8.336 7.857,8.183 7.845,8.038 L 7.823,7.796 C 7.4,3.278 4.109,0 0,0 m 23.292,-8.378 c -4.678,0 -8.072,5.535 -8.072,13.162 0,7.627 3.394,13.163 8.072,13.163 4.677,0 8.071,-5.536 8.071,-13.163 0,-7.627 -3.394,-13.162 -8.071,-13.162 m 0,29.908 C 17.144,21.53 12.519,15.798 11.671,7.553 11.019,16.004 6.751,21.53 0.636,21.53 c -6.938,0 -11.974,-5.258 -11.974,-12.504 0,-7.306 4.769,-12.609 11.338,-12.609 2.814,0 5.423,1.052 7.435,2.856 -1.178,-4.878 -3.936,-7.651 -7.86,-7.651 -1.202,0 -2.37,0.158 -3.463,0.467 -0.086,0.039 -0.228,0.255 -0.26,0.39 v 2.006 h -3.583 v -3.594 c 0,-0.742 0.45,-1.4 1.128,-1.662 1.891,-0.779 4.027,-1.191 6.178,-1.191 6.799,0 11.273,5.428 12.061,14.363 0.741,-8.451 5.413,-14.363 11.656,-14.363 6.814,0 11.761,7.043 11.761,16.746 0,9.704 -4.947,16.746 -11.761,16.746"
           style="fill:#ff00ff;fill-opacity:1;fill-rule:nonzero;stroke:none"
           id="path276" />
      </g>
      <g
         id="g278"
         transform="translate(494.0948,145.5742)">
        <path
           d="m 0,0 -0.402,-0.242 c -0.466,0.431 -1.044,0.612 -1.581,0.612 -1.339,0 -2.428,-1.089 -2.428,-2.428 0,-0.814 0.403,-1.536 1.02,-1.977 -0.19,-0.41 -0.492,-0.885 -0.912,-1.438 l -0.96,-1.266 2.866,-2.147 0.95,1.247 c 1.186,1.558 1.977,2.966 1.977,4.775 0,0.936 -0.208,1.635 -0.53,2.139 z"
           style="fill:#ff00ff;fill-opacity:1;fill-rule:nonzero;stroke:none"
           id="path280" />
      </g>
      <g
         id="g282"
         transform="translate(506.2383,124.8965)">
        <path
           d="m 0,0 c -2.613,0.751 -5.865,1.686 -5.865,2.839 0,1.807 2.33,3.171 5.421,3.171 2.241,0 4.008,-0.556 5.412,-1.706 C 5.567,3.819 5.798,2.619 5.942,1.52 L 5.957,1.4 C 6.028,0.502 6.769,-0.184 7.7,-0.184 c 0.982,0 1.75,0.759 1.75,1.728 L 9.159,9.488 H 5.66 L 5.709,8.111 c -1.765,0.986 -3.827,1.483 -6.153,1.483 -5.28,0 -9.111,-2.841 -9.111,-6.755 0,-3.983 4.445,-5.267 8.743,-6.509 4.905,-1.417 8.121,-2.553 8.121,-5.307 0,-1.611 -2.663,-3.277 -7.118,-3.277 -2.687,0 -4.145,0.485 -5.995,1.993 -0.636,0.526 -1.397,1.451 -1.397,2.875 v 1.814 h -3.421 l -0.37,-10.16 h 3.471 l 0.09,2.144 c 2.494,-1.855 4.803,-2.25 7.622,-2.25 6.364,0 10.807,2.821 10.807,6.861 C 10.998,-3.159 4.9,-1.407 0,0"
           style="fill:#ff00ff;fill-opacity:1;fill-rule:nonzero;stroke:none"
           id="path284" />
      </g>
    </g>
  </g>
</svg>
